<?xml version="1.0" encoding="UTF-8"?>
<svg id="Layer_1" data-name="Layer 1" xmlns="http://www.w3.org/2000/svg" version="1.1" viewBox="0 0 660 241">
  <defs>
    <style>
      .cls-1 {
        fill: #76eb9f;
      }

      .cls-1, .cls-2 {
        stroke-width: 0px;
      }

      .cls-2 {
        fill: #000;
      }
    </style>
  </defs>
  <ellipse class="cls-1" cx="112.4" cy="129.2" rx="112.4" ry="111.4"/>
  <g>
    <polygon class="cls-2" points="106.8 100.5 110.8 99.2 121.1 100 127.7 103.8 121.1 103.7 118.7 106.6 112.8 106.5 111.4 103.4 109 103.4 108.7 108.3 102.3 106.5 106.8 100.5"/>
    <polygon class="cls-2" points="106 180.3 106.8 183.7 113 186.3 105.6 187.7 103.7 185.8 106 180.3"/>
    <polygon class="cls-2" points="171.4 86.9 165.5 91.7 159.7 104.6 167 104.3 168.1 111.1 166.1 117.1 170.1 112.1 170.3 101.2 166.1 98.8 166.7 94.1 171.4 86.9"/>
    <polyline class="cls-2" points="170.4 227.5 198.5 154.6 192.2 144.8 181.6 142.4 187 151.4 177.6 179.4 143.1 228.7 140.8 234.4"/>
    <polygon class="cls-2" points="67.5 175.8 72.2 181.7 64.6 193.7 70.8 224.1 84.1 184 67.5 175.8"/>
    <polygon class="cls-2" points="155.8 124.8 154.6 136.8 142.8 152.6 143.1 171.5 148.4 153.1 156.3 144.4 166.1 127.5 160.8 129.5 155.8 124.8"/>
    <polygon class="cls-2" points="151.5 129.8 151.2 129.8 151.2 130 151.5 129.8"/>
    <polygon class="cls-2" points="174.2 64.3 170.4 57.2 174.3 47.5 156.5 20.5 142.3 14 121.7 11.1 110.7 0 93.4 0 70.5 10.3 65.2 20.3 50.9 19.5 35.1 27.4 48.3 29.2 38.8 42.2 46.4 38.9 53.9 40.2 42.1 51.7 39.4 70.3 37.4 84.8 30.9 93.8 39.7 94.1 31.4 100.8 42.5 110.6 58.4 116 47.3 104.6 50.1 97.8 48.6 90.9 48.6 62 60.1 48.6 85.4 44.9 87.9 38.5 94.5 35.8 99.3 43.5 99.3 56.9 117.5 41.7 120.1 30.2 128.7 40.2 132.4 51.2 127 62.3 135.8 57.4 133.8 71.1 143.3 83.2 149.2 92.8 149.9 101.7 155.8 108.5 159.6 93.8 165.2 86 170.3 82.1 175.2 83.5 175.4 66.8 174.2 64.3"/>
    <polygon class="cls-2" points="93.4 98.3 100.6 98.9 111.8 94.8 121.5 94.8 133.6 97.4 123.1 88.1 113 87.8 99 95.5 93.4 98.3"/>
    <path class="cls-2" d="M90.3,162.1l6.2,4.6,8.5-.8,5.4-4.8-10.7,1.1-5.1-3.5h6.8l4.7-1.7,9.8-.3,7.3-2.8,1.7,4.8.8-7.2-8.2-4.2,4.3,4.8-5.7,2.2-13-1.4-4.5,2.6-4.2-.9-8.2,2.3-5.6-2.5,5.9,6.3,3.9,1.4ZM90.8,148.1l6.2-1.5,5.7-5.5,4,.3,1.9-2.2-5.9-1.1-3.9,4.2-7.8.6-4.2-3.5-.2-35.7-6.1-4.3-7.9-2.6-12.3.6-6.2-15.7.2-16,10.7-21.1-19.1,13.5-4,42,6.5,8.5,6.1,3.5,2.6,4.9.8,16.5,5.4,12.9,7.8,21.8,23.3,22,17.7.2,10.7-7.4-8.4,2.8-18-.3-11.2-9.8-10.9-10.6-3.1-14.5-6.7-11.8-2-10.9v-6.9l9.6,1.4-3.6-3.2-1.6-4.3,2.6-2.9,2.2,2.2,4.5-.5,2-3.7,4.5,3.5-2.8,32.5,3.6,2.9,4.3.6,2.6-1.2ZM61.2,108.8l-1.2-4.9,10.2-.9,4.3,2.2-13.3,3.7Z"/>
  </g>
</svg>