<?xml version="1.0" encoding="UTF-8"?>
<svg id="Layer_1" data-name="Layer 1" xmlns="http://www.w3.org/2000/svg" version="1.1" viewBox="0 0 200 200">
  <defs>
    <style>
      .cls-1 {
        fill: #010101;
      }

      .cls-1, .cls-2 {
        stroke-width: 0px;
      }

      .cls-2 {
        fill: #8bcb96;
      }
    </style>
  </defs>
  <ellipse class="cls-2" cx="101.15" cy="107.08" rx="89.15" ry="88.35"/>
  <g>
    <polygon class="cls-1" points="96.72 84.26 99.92 83.28 108.05 83.89 113.35 86.94 108.05 86.82 106.2 89.14 101.52 89.02 100.42 86.58 98.45 86.58 98.2 90.48 93.15 89.02 96.72 84.26"/>
    <polygon class="cls-1" points="96.11 147.59 96.72 150.28 101.65 152.35 95.74 153.45 94.26 151.99 96.11 147.59"/>
    <polygon class="cls-1" points="147.95 73.52 143.27 77.3 138.71 87.55 144.5 87.31 145.36 92.68 143.76 97.44 146.96 93.53 147.09 84.87 143.76 82.91 144.25 79.25 147.95 73.52"/>
    <polyline class="cls-1" points="147.21 185.06 169.5 127.21 164.45 119.4 156.07 117.57 160.38 124.65 152.87 146.86 125.54 186.04 123.69 190.55"/>
    <polygon class="cls-1" points="65.57 144.05 69.26 148.69 63.23 158.21 68.15 182.37 78.74 150.52 65.57 144.05"/>
    <polygon class="cls-1" points="135.63 103.54 134.65 113.06 125.29 125.63 125.54 140.64 129.72 125.99 136 119.16 143.76 105.74 139.57 107.32 135.63 103.54"/>
    <polygon class="cls-1" points="132.19 107.57 131.94 107.57 131.94 107.69 132.19 107.57"/>
    <polygon class="cls-1" points="150.16 55.58 147.21 49.97 150.29 42.28 136.13 20.8 124.92 15.67 108.54 13.35 99.8 4.57 86.13 4.57 67.91 12.74 63.72 20.68 52.39 20.07 39.83 26.29 50.3 27.76 42.79 38.01 48.82 35.44 54.73 36.42 45.37 45.57 43.28 60.34 41.68 71.81 36.51 79.01 43.53 79.25 36.88 84.5 45.74 92.31 58.3 96.58 49.56 87.55 51.78 82.18 50.54 76.69 50.54 53.75 59.66 43.13 79.73 40.2 81.7 35.08 86.99 33 90.81 39.1 90.81 49.72 105.22 37.64 107.31 28.49 114.08 36.42 117.04 45.21 112.73 53.99 119.75 50.09 118.15 60.95 125.66 70.59 130.34 78.16 130.95 85.23 135.63 90.6 138.59 79.01 143.02 72.79 147.09 69.74 151.03 70.83 151.15 57.53 150.16 55.58"/>
    <polygon class="cls-1" points="86.13 82.55 91.8 83.04 100.66 79.74 108.42 79.74 118.02 81.82 109.65 74.49 101.65 74.25 90.56 80.35 86.13 82.55"/>
    <path class="cls-1" d="M83.67,133.19l4.93,3.66,6.77-.61,4.31-3.78-8.5.85-4.06-2.81h5.42l3.69-1.34,7.76-.24,5.79-2.2,1.35,3.78.62-5.74-6.53-3.29,3.45,3.78-4.56,1.71-10.34-1.1-3.57,2.07-3.32-.73-6.53,1.83-4.43-1.95,4.68,5,3.08,1.1ZM84.04,122.09l4.93-1.22,4.56-4.39,3.2.24,1.48-1.71-4.68-.85-3.08,3.29-6.16.49-3.32-2.81-.12-28.31-4.8-3.42-6.28-2.07-9.73.49-4.93-12.45.12-12.69,8.5-16.72-15.15,10.74-3.2,33.32,5.17,6.71,4.8,2.81,2.09,3.91.62,13.06,4.31,10.25,6.16,17.33,18.47,17.45,14.04.12,8.5-5.86-6.65,2.2-14.28-.24-8.87-7.81-8.62-8.42-2.46-11.47-5.29-9.4-1.6-8.66v-5.49l7.63,1.1-2.83-2.56-1.23-3.42,2.09-2.32,1.72,1.71,3.57-.37,1.6-2.93,3.57,2.81-2.22,25.75,2.83,2.32,3.45.49,2.09-.98ZM60.52,90.85l-.99-3.91,8.13-.73,3.45,1.71-10.59,2.93Z"/>
  </g>
</svg>