<svg id="Ebene_1" data-name="Ebene 1" xmlns="http://www.w3.org/2000/svg" viewBox="0 0 196.82 89.22"><defs><style>.cls-1,.cls-3{fill:#231f20;}.cls-1,.cls-2{fill-rule:evenodd;}.cls-2{fill:#00a88e;}</style></defs><path class="cls-1" d="M195.72.07h-46.3V15.84H163V70.2h19.22V15.84h13.54V.07Zm-50.9,70.06H125.59V.07h19.23V70.13Zm-22.47,0H101L75.55,42.84V27.22L100.18,0h22L93.84,35.28l28.51,34.85Z"/><path class="cls-2" d="M16.15,25.7A69.09,69.09,0,0,0,6.86,40.32L70.94,70.13,16.15,25.7Z"/><path class="cls-2" d="M70.94,70.13,41.06,6.55a69.66,69.66,0,0,0-14.68,9.07L70.94,70.13Z"/><path class="cls-1" d="M70.94,70.13,71,.07h-.58a69.79,69.79,0,0,0-16.56,2l17.06,68Z"/><path class="cls-2" d="M2.26,53A71.12,71.12,0,0,0,0,70.13H70.94L2.26,53Z"/><polygon class="cls-3" points="0 86.38 1.28 86.38 1.28 82 5.26 86.38 7.13 86.38 2.6 81.66 6.8 77.44 5.09 77.44 1.28 81.37 1.28 77.44 0 77.44 0 86.38 0 86.38"/><path class="cls-3" d="M8.73,81.33a3.08,3.08,0,0,1,1.89-.66c1.21,0,1.62.57,1.62,1.7-.48,0-.81,0-1.28,0-1.24,0-3,.52-3,2.15,0,1.42,1,2,2.4,2a2.41,2.41,0,0,0,2-1h0v.85h1.12a12,12,0,0,1-.05-1.28V82.39c0-1.77-.75-2.7-2.62-2.7a4.12,4.12,0,0,0-2.15.62l.06,1Zm3.51,2.51a1.66,1.66,0,0,1-1.82,1.72A1.15,1.15,0,0,1,9.2,84.49c0-1.15,1.62-1.25,2.27-1.25l.77,0v.58Z"/><path class="cls-3" d="M15.48,86.38h1.2v-3c0-1.63.7-2.66,1.78-2.66a1.83,1.83,0,0,1,.67.12V79.78a3.53,3.53,0,0,0-.8-.09,2,2,0,0,0-1.7,1.17h0v-1H15.48v6.53Z"/><polygon class="cls-3" points="20.61 86.38 21.81 86.38 21.81 76.77 20.61 76.77 20.61 86.38 20.61 86.38"/><path class="cls-3" d="M23.47,86.17a3.67,3.67,0,0,0,1.79.36,2.06,2.06,0,0,0,2.28-2c0-2.08-2.83-1.7-2.83-3,0-.54.53-.79,1.15-.79a3.47,3.47,0,0,1,1.27.33l.1-1a5.12,5.12,0,0,0-1.5-.26c-1.29,0-2.3.66-2.3,2,0,1.83,2.83,1.73,2.83,2.92,0,.71-.68.94-1.23.94a3.28,3.28,0,0,1-1.5-.46l-.06,1.07Z"/><path class="cls-3" d="M29,86.38h1.2v-3c0-1.63.7-2.66,1.78-2.66a1.74,1.74,0,0,1,.66.12V79.78a3.37,3.37,0,0,0-.79-.09,2,2,0,0,0-1.7,1.17h0v-1H29v6.53Z"/><path class="cls-3" d="M39.75,79.85h-1.2v3c0,1.59-.62,2.69-2,2.69-1.05-.07-1.38-.81-1.38-2.33V79.85H34v3.87c0,1.76.75,2.81,2.44,2.81a2.36,2.36,0,0,0,2.14-1.19h0v1h1.17V79.85Z"/><path class="cls-3" d="M41.8,86.38H43v-3c0-1.58.61-2.68,2-2.68,1.05.06,1.39.8,1.39,2.33v3.38h1.2V82.5c0-1.76-.76-2.81-2.45-2.81A2.39,2.39,0,0,0,43,80.78h0v-4H41.8v9.61Z"/><path class="cls-3" d="M54.62,84.9a3.76,3.76,0,0,1-2,.66,2.14,2.14,0,0,1-2.15-2.18h4.66c0-2.1-.7-3.69-2.88-3.69A3,3,0,0,0,49.18,83c0,2.12,1.07,3.53,3.38,3.53a5.09,5.09,0,0,0,2.06-.42V84.9Zm-4.16-2.42a1.81,1.81,0,0,1,1.76-1.81,1.64,1.64,0,0,1,1.62,1.81Z"/><polygon class="cls-3" points="60.41 86.38 61.69 86.38 61.69 77.44 60.41 77.44 60.41 86.38 60.41 86.38"/><path class="cls-3" d="M63.85,86.38h1.21v-3c0-1.58.61-2.68,2-2.68,1,.06,1.38.8,1.38,2.33v3.38h1.21V82.5c0-1.76-.76-2.81-2.45-2.81A2.36,2.36,0,0,0,65,80.88h0v-1H63.85v6.53Z"/><path class="cls-3" d="M71.12,86.17a3.73,3.73,0,0,0,1.8.36,2.06,2.06,0,0,0,2.28-2c0-2.08-2.83-1.7-2.83-3,0-.54.53-.79,1.15-.79a3.47,3.47,0,0,1,1.27.33l.1-1a5.12,5.12,0,0,0-1.5-.26c-1.29,0-2.3.66-2.3,2,0,1.83,2.83,1.73,2.83,2.92,0,.71-.68.94-1.23.94a3.28,3.28,0,0,1-1.5-.46l-.07,1.07Z"/><path class="cls-3" d="M80.12,79.85H78.4V78l-1.21.39v1.51H75.72v1h1.47v3.81a1.75,1.75,0,0,0,2,1.9,3.66,3.66,0,0,0,1-.18v-1a1.54,1.54,0,0,1-.82.23,1,1,0,0,1-1-1.17V80.82h1.72v-1Z"/><path class="cls-3" d="M81.79,86.38H83V79.85h-1.2v6.53ZM83.07,77H81.71v1.36h1.36V77Z"/><path class="cls-3" d="M88.66,79.85H86.93V78l-1.2.39v1.51H84.26v1h1.47v3.81a1.75,1.75,0,0,0,2,1.9,3.66,3.66,0,0,0,1-.18v-1a1.54,1.54,0,0,1-.82.23,1,1,0,0,1-1-1.17V80.82h1.73v-1Z"/><path class="cls-3" d="M96,79.85H94.74v3c0,1.59-.61,2.69-2,2.69-1.05-.07-1.38-.81-1.38-2.33V79.85H90.17v3.87c0,1.76.76,2.81,2.45,2.81a2.36,2.36,0,0,0,2.14-1.19h0v1H96V79.85Z"/><path class="cls-3" d="M101.46,79.85H99.74V78l-1.21.39v1.51H97.06v1h1.47v3.81a1.75,1.75,0,0,0,2,1.9,3.66,3.66,0,0,0,1-.18v-1a1.54,1.54,0,0,1-.82.23,1,1,0,0,1-1-1.17V80.82h1.72v-1Z"/><path class="cls-3" d="M108,84.9a3.79,3.79,0,0,1-2,.66,2.14,2.14,0,0,1-2.15-2.18h4.66c0-2.1-.7-3.69-2.88-3.69A3,3,0,0,0,102.54,83c0,2.12,1.06,3.53,3.38,3.53a5.13,5.13,0,0,0,2.06-.42V84.9Zm-4.16-2.42a1.81,1.81,0,0,1,1.75-1.81,1.64,1.64,0,0,1,1.63,1.81Z"/><path class="cls-3" d="M113.22,83.11a3.32,3.32,0,1,0,6.64,0,3.32,3.32,0,1,0-6.64,0Zm1.28,0a2.07,2.07,0,1,1,4.08,0,2.07,2.07,0,1,1-4.08,0Z"/><path class="cls-3" d="M122.25,86.38h1.21V80.82h1.73v-1h-1.73v-.71c0-.88.12-1.55,1.16-1.55a1.93,1.93,0,0,1,.58.08l0-1a4.72,4.72,0,0,0-.81-.08c-1.78,0-2.19,1-2.19,2.62v.61h-1.53v1h1.53v5.56Z"/><polygon class="cls-3" points="131.91 86.38 133.19 86.38 133.19 78.57 135.96 78.57 135.96 77.44 129.13 77.44 129.13 78.57 131.91 78.57 131.91 86.38 131.91 86.38"/><path class="cls-3" d="M141.19,84.9a3.83,3.83,0,0,1-2,.66A2.14,2.14,0,0,1,137,83.38h4.66c0-2.1-.71-3.69-2.88-3.69A3,3,0,0,0,135.75,83c0,2.12,1.06,3.53,3.38,3.53a5.13,5.13,0,0,0,2.06-.42V84.9ZM137,82.48a1.8,1.8,0,0,1,1.75-1.81,1.64,1.64,0,0,1,1.63,1.81Z"/><path class="cls-3" d="M147.55,80a4.53,4.53,0,0,0-1.46-.26,3.23,3.23,0,0,0-3.33,3.42,3.31,3.31,0,0,0,3.33,3.42,3.67,3.67,0,0,0,1.51-.27l-.09-1.07a2.53,2.53,0,0,1-1.29.37,2.47,2.47,0,0,1-.08-4.89,3.51,3.51,0,0,1,1.31.28l.1-1Z"/><path class="cls-3" d="M149,86.38h1.21v-3c0-1.58.61-2.68,2-2.68,1.05.06,1.38.8,1.38,2.33v3.38h1.21V82.5c0-1.76-.76-2.81-2.45-2.81a2.4,2.4,0,0,0-2.1,1.09h0v-4H149v9.61Z"/><path class="cls-3" d="M156.8,86.38H158v-3c0-1.58.61-2.68,2-2.68,1,.06,1.38.8,1.38,2.33v3.38h1.21V82.5c0-1.76-.76-2.81-2.45-2.81A2.33,2.33,0,0,0,158,80.88h0v-1H156.8v6.53Z"/><path class="cls-3" d="M164.19,83.11a3.32,3.32,0,1,0,6.64,0,3.32,3.32,0,1,0-6.64,0Zm1.28,0a2.07,2.07,0,1,1,4.08,0,2.07,2.07,0,1,1-4.08,0Z"/><polygon class="cls-3" points="172.6 86.38 173.81 86.38 173.81 76.77 172.6 76.77 172.6 86.38 172.6 86.38"/><path class="cls-3" d="M175.57,83.11a3.32,3.32,0,1,0,6.64,0,3.32,3.32,0,1,0-6.64,0Zm1.28,0a2.08,2.08,0,1,1,4.09,0,2.08,2.08,0,1,1-4.09,0Z"/><path class="cls-3" d="M189.6,79.85h-1.11v1h0a2.16,2.16,0,0,0-2.15-1.13c-2,0-2.92,1.79-2.92,3.47s.92,3.22,2.79,3.22a2.72,2.72,0,0,0,2.19-1h0V86a2,2,0,0,1-2,2.25,5,5,0,0,1-2.36-.59l-.13,1.11a6.57,6.57,0,0,0,2.34.45c2.35,0,3.37-1.14,3.37-3.13V79.85Zm-3.11,5.55c-1.13,0-1.82-1.07-1.82-2.3s.6-2.43,1.82-2.43,1.91,1.16,1.91,2.52a2,2,0,0,1-1.91,2.21Z"/><path class="cls-3" d="M191.09,89.13a3.73,3.73,0,0,0,.82.09c1.58,0,2.06-1.45,2.51-2.7l2.4-6.67h-1.21l-1.8,5.4h0L192,79.85h-1.32l2.22,6.09a3.46,3.46,0,0,1,.23.69c0,.13-.36,1.62-1.43,1.62a1.65,1.65,0,0,1-.57-.11l-.07,1Z"/></svg>