<svg id="Layer_1" data-name="Layer 1" xmlns="http://www.w3.org/2000/svg" viewBox="0 0 158.74 172.06"><defs><style>.cls-1{fill:#076eaf;}.cls-2{fill:#fff;}</style></defs><path class="cls-1" d="M21,59.85a104.44,104.44,0,0,0,15.06,53.21,87.33,87.33,0,0,0,43.26,36.25,87,87,0,0,0,43.34-36.25,104.1,104.1,0,0,0,15.06-53.21V0H21Z"/><path class="cls-1" d="M144.72,88l-.56,1.93c-.68,2.31-1.44,4.54-2.24,6.69l-5-4.53-.62,1.83a105.22,105.22,0,0,1-10.39,22.16c-11,17.55-26.45,30.35-44.66,37l-1.88.67-1.81-.67c-18.21-6.67-33.68-19.45-44.64-37A102.41,102.41,0,0,1,22.5,93.89l-.62-1.83-1.46,1.28-3.55,3.22c-.79-2.15-1.56-4.35-2.26-6.66L14.06,88l-1.48,1.34L0,100.67l.23.76a145.65,145.65,0,0,0,11.54,26l.74,1.38,5.22-4.68c.2.35.37.73.58,1.07,13,20.81,31.47,36,53.33,44l7.7,2.83,7.81-2.83c21.86-8,40.26-23.21,53.29-44,.2-.33.4-.73.6-1.07l5.16,4.67.78-1.38a142,142,0,0,0,11.53-26l.23-.75Z"/><path class="cls-2" d="M127.94,26.3a5.32,5.32,0,0,1-.54,2.33,3.93,3.93,0,0,1-.86,1.16,5.74,5.74,0,0,0-1.39.86,3.94,3.94,0,0,1-.06-.58,4.73,4.73,0,0,1,.57-2.33,5.34,5.34,0,0,1,2.19-2.15A5.74,5.74,0,0,1,127.94,26.3Z"/><path class="cls-2" d="M118.45,42.12h0a5,5,0,0,1,3,.53,4.57,4.57,0,0,1-2.66,1.43,5.47,5.47,0,0,1-3.08-.52A5.31,5.31,0,0,1,118.45,42.12Z"/><path class="cls-2" d="M113.44,43.7a1.94,1.94,0,0,1,0-.24,5,5,0,0,1,.75-2.66h0a4.84,4.84,0,0,1,2.25-1.87,1.45,1.45,0,0,1,0,.28,4.81,4.81,0,0,1-.75,2.6A4.4,4.4,0,0,1,113.44,43.7Z"/><path class="cls-2" d="M117.3,38.27a5.48,5.48,0,0,1,1.46-1.59,5.87,5.87,0,0,1,.29,1.38,4.73,4.73,0,0,1-.25,1.54,4.53,4.53,0,0,1-1.23,1.81c-.21.06-.42.14-.64.22l0-.13A6.1,6.1,0,0,0,117.3,38.27Z"/><path class="cls-2" d="M119.49,35.79a5.5,5.5,0,0,1,1.08-1.92,5.06,5.06,0,0,1,.71,2.47c0,.12,0,.26,0,.39a4.25,4.25,0,0,1-.74,2.05,5.83,5.83,0,0,0-.62.39s0-.09,0-.13A5.94,5.94,0,0,0,119.49,35.79Z"/><path class="cls-2" d="M121,32.83a7,7,0,0,1,.5-2.08,4.94,4.94,0,0,1,1.4,2.61c0,.23,0,.45,0,.67a4.23,4.23,0,0,1-.29,1.48c-.17.18-.34.34-.49.53a.47.47,0,0,1-.09-.12A7,7,0,0,0,121,32.83Z"/><path class="cls-2" d="M121.76,29.61a4.77,4.77,0,0,1-.11-1,5.19,5.19,0,0,1,.2-1.12,4.94,4.94,0,0,1,2,2.18,5.07,5.07,0,0,1,.34,1.83,2.85,2.85,0,0,1,0,.29,5.45,5.45,0,0,0-.39.66.63.63,0,0,1-.12-.1A6.48,6.48,0,0,0,121.76,29.61Z"/><path class="cls-2" d="M121.83,26.37a4.92,4.92,0,0,1-.47-2.17,5.45,5.45,0,0,1,2.44,1.73,4.66,4.66,0,0,1,.8,2,6.43,6.43,0,0,0-.22.71l-.15-.05A6.21,6.21,0,0,0,121.83,26.37Z"/><path class="cls-2" d="M124.12,24.77a.58.58,0,0,1-.19,0,6.49,6.49,0,0,0-2.76-1.62,5.22,5.22,0,0,1-.93-1.94,4.78,4.78,0,0,1,2.67,1.1,4.54,4.54,0,0,1,1.24,1.81A5.23,5.23,0,0,0,124.12,24.77Z"/><path class="cls-2" d="M122.84,21.12a5.85,5.85,0,0,0-3.12-.94,6.12,6.12,0,0,1-1.43-1.74,5.28,5.28,0,0,1,3,.5,4.78,4.78,0,0,1,1.54,1.44c0,.24.08.48.13.73Z"/><path class="cls-2" d="M120.83,41.41a5.61,5.61,0,0,0-1.56-.23,5.62,5.62,0,0,1,2.15-1.9h0a5.26,5.26,0,0,1,3.1-.19,4.83,4.83,0,0,1-2.33,2A3.93,3.93,0,0,1,120.83,41.41Z"/><path class="cls-2" d="M123.63,38a6.27,6.27,0,0,0-1.62.14,5.12,5.12,0,0,1,1.75-2.37v0a5.28,5.28,0,0,1,3-.93,5.3,5.3,0,0,1-1.81,2.58A5.79,5.79,0,0,1,123.63,38Z"/><path class="cls-2" d="M126.7,33.17a4.35,4.35,0,0,1-1.15.94,6.66,6.66,0,0,0-1.49.48,5.42,5.42,0,0,1,1.11-2.76,5.72,5.72,0,0,1,2.61-1.51A5.12,5.12,0,0,1,126.7,33.17Z"/><path class="cls-2" d="M127.23,22.92a4.55,4.55,0,0,1-.14,1.16,4,4,0,0,1-.59,1.33,5.36,5.36,0,0,0-1.14,1.14,5.22,5.22,0,0,1-.38-1.78,4.66,4.66,0,0,1,.16-1.18,5.29,5.29,0,0,1,1.69-2.6A5.74,5.74,0,0,1,127.23,22.92Z"/><path class="cls-2" d="M123.65,19.66a5.39,5.39,0,0,1,1-2.89,5.26,5.26,0,0,1,1,2.91v0a4.75,4.75,0,0,1-.26,1.44,6.27,6.27,0,0,0-.84,1.34,5.09,5.09,0,0,1-.92-2.77Z"/><path class="cls-2" d="M121.59,13.17a5.08,5.08,0,0,1,1.67,2.61,5.48,5.48,0,0,1,.13,1.06,3.16,3.16,0,0,1,0,.32,6.1,6.1,0,0,0-.52,1.58,4.84,4.84,0,0,1-1.5-2.48,7,7,0,0,1-.09-1.12A5.79,5.79,0,0,1,121.59,13.17Z"/><path class="cls-2" d="M121,17.77l-.15,0a6.36,6.36,0,0,0-3.31-.19,6.14,6.14,0,0,1-1.76-1.34,5.3,5.3,0,0,1,3-.22,4.69,4.69,0,0,1,1.91,1C120.8,17.32,120.91,17.56,121,17.77Z"/><path class="cls-2" d="M117.83,10.38a5,5,0,0,1,2.24,2.17,5.62,5.62,0,0,1,.44,1.29,6.7,6.7,0,0,0-.15,1.67,5.63,5.63,0,0,1-2.13-2.09,5.09,5.09,0,0,1-.49-2.26A6.41,6.41,0,0,1,117.83,10.38Z"/><path class="cls-2" d="M116.7,12.38a4,4,0,0,1,.31.27,5,5,0,0,0,.43,1.15v0a5.64,5.64,0,0,0,.73,1.07,5.2,5.2,0,0,1-2.64-.89,5.41,5.41,0,0,1-1.75-2.55A5.07,5.07,0,0,1,116.7,12.38Z"/><path class="cls-2" d="M102.84,34.68a1.15,1.15,0,0,1,1.1,1.17,1,1,0,0,1-.13.47c-.1.2-.16.44.27.44h1.57V16.94a19.89,19.89,0,0,1,1.77-9.08l.45-.89.45.89A20.9,20.9,0,0,1,110,16.94V36.76h1.56c.44,0,.37-.24.26-.44a1.2,1.2,0,0,1-.12-.47,1.17,1.17,0,0,1,1.18-1.17,1.21,1.21,0,0,1,1.18,1.21c0,.81-.63,1.65-2.1,1.65h-2.58a11,11,0,0,1,.59,3.77,10.79,10.79,0,0,1-.85,4.48,14.12,14.12,0,0,0,4.75-1.52l.13-.08.36.85-.1.05a14.68,14.68,0,0,1-3.93,1.33l-1.78.33a1,1,0,0,1,.31.77,1,1,0,0,1-1.07,1,1.05,1.05,0,0,1-.76-1.82l-1.92-.33a14.69,14.69,0,0,1-3.79-1.33l-.1-.05.38-.85.11.08a14.49,14.49,0,0,0,4.85,1.54,9.65,9.65,0,0,1-.93-4.5,10.79,10.79,0,0,1,.6-3.77h-2.59c-1.38,0-2-.86-2-1.65A1.22,1.22,0,0,1,102.84,34.68Z"/><path class="cls-2" d="M98.77,41.49a.29.29,0,0,1,0,.14,5.33,5.33,0,0,0-.64-.22A4.15,4.15,0,0,1,97,39.6a5,5,0,0,1-.25-1.54A6.05,6.05,0,0,1,97,36.67a6.62,6.62,0,0,1,1.39,1.6A6.05,6.05,0,0,0,98.77,41.49Z"/><path class="cls-2" d="M96,20.18a6,6,0,0,0-3.19.94h-.12a3.91,3.91,0,0,0,.14-.73,4.55,4.55,0,0,1,1.62-1.44,5.18,5.18,0,0,1,2.89-.51A5.08,5.08,0,0,1,96,20.18Z"/><path class="cls-2" d="M95.92,39a.83.83,0,0,0-.07.13c-.2-.14-.4-.28-.61-.4a4.42,4.42,0,0,1-.76-2.05c0-.13,0-.26,0-.39a5.18,5.18,0,0,1,.72-2.46,4.93,4.93,0,0,1,1.08,1.92A5.83,5.83,0,0,0,95.92,39Z"/><path class="cls-2" d="M92.75,33.36a5.06,5.06,0,0,1,1.39-2.61,5,5,0,0,1,.58,2.08,6.24,6.24,0,0,0-1.13,3.09l-.1.12c-.16-.19-.32-.35-.5-.53A4.47,4.47,0,0,1,92.7,34,5.16,5.16,0,0,1,92.75,33.36Z"/><path class="cls-2" d="M92.07,32.36a.63.63,0,0,1-.12.1,7.73,7.73,0,0,0-.38-.68,1.93,1.93,0,0,1,0-.27,4.49,4.49,0,0,1,2.3-4A6.73,6.73,0,0,1,94,28.62a4.19,4.19,0,0,1-.12,1A6.72,6.72,0,0,0,92.07,32.36Z"/><path class="cls-2" d="M92.79,22.28a4.85,4.85,0,0,1,2.74-1.1,5.45,5.45,0,0,1-1,1.93,6.5,6.5,0,0,0-2.83,1.63l-.17,0c0-.22,0-.45,0-.68A4.13,4.13,0,0,1,92.79,22.28Z"/><path class="cls-2" d="M91.89,25.93a5.2,5.2,0,0,1,2.46-1.73,5,5,0,0,1-.5,2.16,6.34,6.34,0,0,0-2.41,2.23l-.13.05a6.29,6.29,0,0,0-.2-.71A4.19,4.19,0,0,1,91.89,25.93Z"/><path class="cls-2" d="M91.63,34.59a5.71,5.71,0,0,0-1.41-.48,4.4,4.4,0,0,1-1.16-.94,5.05,5.05,0,0,1-1.16-2.85,5.5,5.5,0,0,1,2.69,1.51A5.91,5.91,0,0,1,91.63,34.59Z"/><path class="cls-2" d="M91.92,35.77v0a5.24,5.24,0,0,1,1.74,2.37A6.27,6.27,0,0,0,92,38a4.42,4.42,0,0,1-1.23-.61A5.13,5.13,0,0,1,89,34.84,4.87,4.87,0,0,1,91.92,35.77Z"/><path class="cls-2" d="M94.25,39.28h0a5.3,5.3,0,0,1,2.25,1.9,5.63,5.63,0,0,0-1.57.23,4.31,4.31,0,0,1-1.45-.33,4.61,4.61,0,0,1-2.29-2A5.07,5.07,0,0,1,94.25,39.28Z"/><path class="cls-2" d="M97.25,42.12h0A5.24,5.24,0,0,1,100,43.56a5.33,5.33,0,0,1-3,.52,5.15,5.15,0,0,1-2.73-1.43A5.28,5.28,0,0,1,97.25,42.12Z"/><path class="cls-2" d="M99.94,41.81a5,5,0,0,1-.73-2.6c0-.1,0-.18,0-.28a5.24,5.24,0,0,1,2.36,1.87h0a4.93,4.93,0,0,1,.74,2.66v.24A4.9,4.9,0,0,1,99.94,41.81Z"/><path class="cls-2" d="M98.26,13.8a6,6,0,0,0,.4-1.15c.11-.09.21-.19.33-.27a5.3,5.3,0,0,1,3-.93A5.2,5.2,0,0,1,100.16,14a5.27,5.27,0,0,1-2.64.89,9.62,9.62,0,0,0,.73-1.07Z"/><path class="cls-2" d="M95.7,12.55a5,5,0,0,1,2.16-2.17,6.41,6.41,0,0,1,.09.78,4.85,4.85,0,0,1-.52,2.26,4.8,4.8,0,0,1-2,2.09,6.26,6.26,0,0,0-.14-1.67A4.81,4.81,0,0,1,95.7,12.55Z"/><path class="cls-2" d="M95,17.09a4.63,4.63,0,0,1,1.91-1,5.06,5.06,0,0,1,2.93.22,6.24,6.24,0,0,1-1.75,1.34,6,6,0,0,0-3.24.19l-.14,0A5.15,5.15,0,0,0,95,17.09Z"/><path class="cls-2" d="M92.42,15.77a5,5,0,0,1,1.67-2.6,5.44,5.44,0,0,1,.42,2,4.74,4.74,0,0,1-.12,1.12,5.21,5.21,0,0,1-1.54,2.48,6.16,6.16,0,0,0-.54-1.58c0-.1,0-.22,0-.32A4.94,4.94,0,0,1,92.42,15.77Z"/><path class="cls-2" d="M90.09,19.68a5.46,5.46,0,0,1,1-2.91,5.55,5.55,0,0,1,1,2.89v.05a5.3,5.3,0,0,1-.88,2.77,5,5,0,0,0-.78-1.34,4.22,4.22,0,0,1-.27-1.44Z"/><path class="cls-2" d="M88.92,21a5.33,5.33,0,0,1,1.71,2.6,4.65,4.65,0,0,1,.14,1.18,5.18,5.18,0,0,1-.36,1.78,5.14,5.14,0,0,0-1.14-1.14,4.45,4.45,0,0,1-.61-1.33,4.56,4.56,0,0,1-.15-1.16A5.72,5.72,0,0,1,88.92,21Z"/><path class="cls-2" d="M87.84,25.59a5.14,5.14,0,0,1,2.27,2.15,5,5,0,0,1,.56,2.33,5.51,5.51,0,0,1-.06.57,5.41,5.41,0,0,0-1.4-.85,4.87,4.87,0,0,1-.88-1.16,4.63,4.63,0,0,1-.58-2.33A5.74,5.74,0,0,1,87.84,25.59Z"/><path class="cls-1" d="M109.1,16.94a20.3,20.3,0,0,0-1.23-7.48V35.55h1.23Z"/><path class="cls-2" d="M60,38.28a20.26,20.26,0,0,0,6.48.94V11.82a21.66,21.66,0,0,1-6.8-1A20.28,20.28,0,0,0,54.29,10h0A6.41,6.41,0,0,0,50,11.39V38.55a8.05,8.05,0,0,1,4.25-1.16A20.9,20.9,0,0,1,60,38.28Z"/><path class="cls-2" d="M44.49,37.39a7.93,7.93,0,0,1,4.23,1.16V11.39A6.22,6.22,0,0,0,44.44,10a20.1,20.1,0,0,0-5.36.85,21.66,21.66,0,0,1-6.78,1v27.4a20.34,20.34,0,0,0,6.46-.94A20.79,20.79,0,0,1,44.49,37.39Z"/><path class="cls-2" d="M69.89,12.38H68.14l.14.61a.63.63,0,0,1,0,.19v28.2l-17.48,0c-.31.53-.7.62-1.5.62s-1.06-.09-1.38-.62l-17.57,0V13.18a.71.71,0,0,1,0-.2l.15-.6H28.19v31.2H47a2.57,2.57,0,0,0,2.3,1.36,2.66,2.66,0,0,0,2.39-1.36H70.56V12.38Z"/><path class="cls-1" d="M54.25,16.57a9.86,9.86,0,0,0-2.64.42v1.4a8.76,8.76,0,0,1,2.68-.5,20.35,20.35,0,0,1,5.34.9,28.76,28.76,0,0,0,5.1,1v-1.3A25.83,25.83,0,0,1,60,17.5,21.35,21.35,0,0,0,54.25,16.57Z"/><path class="cls-1" d="M54.25,32.47a9.48,9.48,0,0,0-2.64.42v1.4a7.5,7.5,0,0,1,2.68-.49,19.72,19.72,0,0,1,5.33.86,27.84,27.84,0,0,0,5.11,1V34.34A24.37,24.37,0,0,1,60,33.4,21.62,21.62,0,0,0,54.25,32.47Z"/><path class="cls-1" d="M54.25,29.28a10.28,10.28,0,0,0-2.64.42v1.41a7.91,7.91,0,0,1,2.68-.51,20.45,20.45,0,0,1,5.35.89,27.77,27.77,0,0,0,5.09.95V31.16A25.56,25.56,0,0,1,60,30.21,20.65,20.65,0,0,0,54.25,29.28Z"/><path class="cls-1" d="M54.25,19.75a9.88,9.88,0,0,0-2.64.41v1.41a8.19,8.19,0,0,1,2.68-.5,19.39,19.39,0,0,1,5.32.89,28.81,28.81,0,0,0,5.12,1v-1.3a26.89,26.89,0,0,1-4.79-.94A20.45,20.45,0,0,0,54.25,19.75Z"/><path class="cls-1" d="M54.25,26.12a9.18,9.18,0,0,0-2.64.38v1.4a7.93,7.93,0,0,1,2.67-.46,20.18,20.18,0,0,1,5.33.89,31.58,31.58,0,0,0,5.12,1V28a26.25,26.25,0,0,1-4.81-.94A21,21,0,0,0,54.25,26.12Z"/><path class="cls-1" d="M60,14.31a22.07,22.07,0,0,0-5.71-.9,9.9,9.9,0,0,0-2.64.4v1.4a8.19,8.19,0,0,1,2.68-.5,19.91,19.91,0,0,1,5.34.89,25.56,25.56,0,0,0,5.1,1V15.26A25.83,25.83,0,0,1,60,14.31Z"/><path class="cls-1" d="M38.78,30.23a28.76,28.76,0,0,1-4.79.93v1.3a30.87,30.87,0,0,0,5.12-1,20,20,0,0,1,5.34-.89,8.12,8.12,0,0,1,2.7.5V29.7a10.44,10.44,0,0,0-2.66-.42A20.47,20.47,0,0,0,38.78,30.23Z"/><path class="cls-1" d="M38.82,27.05A28.46,28.46,0,0,1,34,28v1.28a33.43,33.43,0,0,0,5.15-1,19.78,19.78,0,0,1,5.31-.89,7.69,7.69,0,0,1,2.7.48v-1.4a9.35,9.35,0,0,0-2.66-.4A20.77,20.77,0,0,0,38.82,27.05Z"/><path class="cls-1" d="M54.25,22.93a9.48,9.48,0,0,0-2.64.42v1.4a8.22,8.22,0,0,1,2.68-.49,19.27,19.27,0,0,1,5.35.89,30.56,30.56,0,0,0,5.09,1V24.82a26.7,26.7,0,0,1-4.77-1A20.9,20.9,0,0,0,54.25,22.93Z"/><path class="cls-1" d="M38.79,33.41a26.27,26.27,0,0,1-4.8.93v1.3a29.71,29.71,0,0,0,5.12-1,19.49,19.49,0,0,1,5.34-.86,7.49,7.49,0,0,1,2.7.49v-1.4a9.69,9.69,0,0,0-2.66-.42A21.07,21.07,0,0,0,38.79,33.41Z"/><path class="cls-1" d="M38.78,14.31a26,26,0,0,1-4.79.95v1.29a26.58,26.58,0,0,0,5.12-1,19.6,19.6,0,0,1,5.34-.89,8.66,8.66,0,0,1,2.7.5V13.82a9.62,9.62,0,0,0-2.64-.41A21.83,21.83,0,0,0,38.78,14.31Z"/><path class="cls-1" d="M38.78,17.5a26,26,0,0,1-4.79.95v1.3a29.1,29.1,0,0,0,5.12-1,20,20,0,0,1,5.34-.9,8.72,8.72,0,0,1,2.7.5V17a10.09,10.09,0,0,0-2.66-.42A21.1,21.1,0,0,0,38.78,17.5Z"/><path class="cls-1" d="M38.78,23.86a26.9,26.9,0,0,1-4.79.95v1.28a29.85,29.85,0,0,0,5.12-.95,19.19,19.19,0,0,1,5.34-.88,8.15,8.15,0,0,1,2.7.49V23.36a9.23,9.23,0,0,0-2.64-.43A20.8,20.8,0,0,0,38.78,23.86Z"/><path class="cls-1" d="M38.82,20.68a28.85,28.85,0,0,1-4.83.95v1.29a29.26,29.26,0,0,0,5.15-1,19,19,0,0,1,5.31-.89,8.73,8.73,0,0,1,2.7.48V20.16a10,10,0,0,0-2.64-.41A20.05,20.05,0,0,0,38.82,20.68Z"/><polygon class="cls-2" points="63.22 109.31 63.16 113.34 59.99 110.85 56.73 113.34 56.65 109.31 52.76 108.31 55.85 105.75 54.2 102.07 58.14 102.88 59.99 99.28 61.75 102.88 65.77 102.07 64.05 105.75 67.14 108.31 63.22 109.31"/><polygon class="cls-2" points="85.25 137.7 81.25 136.19 79.47 140.12 77.73 136.19 73.68 137.7 75.19 133.67 71.31 131.84 75.19 130.08 73.68 126 77.73 127.52 79.47 123.58 81.25 127.52 85.25 126 83.8 130.08 87.65 131.85 83.8 133.67 85.25 137.7"/><polygon class="cls-2" points="73.57 83.63 77.57 84.47 79.34 80.86 81.19 84.47 85.16 83.63 83.49 87.31 86.58 89.91 82.67 90.87 82.59 94.92 79.34 92.45 76.18 94.92 76.11 90.87 72.2 89.91 75.3 87.31 73.57 83.63"/><polygon class="cls-2" points="89.57 116.31 86.42 114.74 83.36 116.31 83.93 112.86 81.44 110.4 84.88 109.85 86.42 106.78 88.04 109.85 91.43 110.4 89.03 112.86 89.57 116.31"/><polygon class="cls-2" points="102.3 103.63 98.71 103.58 97.01 106.66 95.27 103.58 91.68 103.63 93.53 100.59 91.68 97.52 95.27 97.58 97.01 94.48 98.71 97.58 102.3 97.52 100.46 100.59 102.3 103.63"/><path class="cls-2" d="M79.34,66l44.51,39.91a102.56,102.56,0,0,0,6.68-16.19L79.34,43.76,28.27,89.71a97.94,97.94,0,0,0,6.67,16.19Z"/><path class="cls-2" d="M148.37,119.37l2.41-14.86-6.89-6.18c.72-1.92,1.42-3.85,2-5.89,2.06,1.87,9,8.1,10,9A129.86,129.86,0,0,1,148.37,119.37Z"/><path class="cls-2" d="M145,124.33c-.67-.61-1.62-1.47-2.72-2.43,0,0,0,0,0-.05,1.56-2.66,3.06-5.38,4.36-8.21Z"/><path class="cls-2" d="M2.9,101.42c1-.88,8-7.12,10-9,.63,2,1.33,4,2,5.87L8,104.51l2.39,14.82A131,131,0,0,1,2.9,101.42Z"/><path class="cls-2" d="M13.7,124.33l-1.65-10.72c1.32,2.84,2.82,5.58,4.41,8.27Z"/><path class="cls-2" d="M138.34,123.87c-12.76,20.32-30.75,35.18-52.07,43,0,0-6.15,2.22-6.93,2.52-.69-.3-6.84-2.53-6.84-2.53-21.31-7.8-39.3-22.67-52.08-43a115.72,115.72,0,0,1-9.34-18.7c1.11-1,7.73-7,9.7-8.75a106,106,0,0,0,10,21c11.33,18,27.15,31.19,45.91,38.05l2.68,1,2.77-1c18.76-6.85,34.6-20,45.86-38.05a103.66,103.66,0,0,0,10-21c1.91,1.77,8.59,7.76,9.7,8.75A117.1,117.1,0,0,1,138.34,123.87Z"/><path class="cls-1" d="M24.51,117.19l2-2.24-.17-.69a15.29,15.29,0,0,1-1.12-1.15c-2.09.37-5.39.9-6.87,1l-.4-.45-.39.22c.21.34.39.69.58,1s.43.84.64,1.24l.38-.23-.17-.6,2.18-.5,1.17,2a18.87,18.87,0,0,1-1.57,1.64l-.42-.49-.42.23c.29.51.59,1,.88,1.51s.54,1,.8,1.48l.42-.24-.2-.6C22.24,119.82,23.55,118.28,24.51,117.19Zm-2.42-2.56,2.8-.58v0L23,116.2Z"/><path class="cls-1" d="M34.45,127.65l.39-.28c-.27-.35-.55-.7-.8-1.05s-.5-.71-.74-1.06l-.4.27.3.62c-1,.84-3.65,2.8-3.65,2.8h0c.67-1.85,1.45-4,2.14-5.91-.24-.33-.49-.62-.72-1s-.43-.66-.64-1l-.37.29.28.61a17.69,17.69,0,0,1-1.59,1.25l-1.75,1.26a19.91,19.91,0,0,1-1.71,1.1l-.49-.48-.37.28c.26.34.52.69.77,1s.47.71.73,1.08l.38-.29-.3-.62c1-.84,2.53-1.92,3.72-2.79h0c-.76,1.94-1.47,4-2.24,6,.18.22.36.45.53.69s.32.46.44.64c.56-.46,1.31-1,2.16-1.66l1.69-1.23c.65-.45,1.18-.79,1.73-1.11Z"/><path class="cls-1" d="M34.93,133.47a3.64,3.64,0,0,0-.18,5.31,5.08,5.08,0,0,0,3.62,1.74l.13-.87a3.32,3.32,0,0,1-2.12-1.05,2.64,2.64,0,0,1,.16-3.9,2.31,2.31,0,0,1,3.46.09,3.73,3.73,0,0,1,.84,1.67l-.39.46.35.41a5.14,5.14,0,0,1,1.58-.93,7,7,0,0,0-1.46-2.25C39.13,132.23,36.65,131.85,34.93,133.47Z"/><path class="cls-1" d="M49.22,142c-2-1.72-4.36-1.44-5.74.2-1.52,1.88-1.16,4,.85,5.68s4.39,1.44,5.72-.2C51.66,145.84,51.29,143.73,49.22,142Zm-.67,4.4c-1,1.22-2.47,1.59-3.56.69s-1-2.37.06-3.59,2.48-1.61,3.56-.69S49.52,145.19,48.55,146.43Z"/><path class="cls-1" d="M59.82,149.77c-.44-.27-.9-.53-1.34-.79s-.91-.52-1.34-.79L56,147.46l-.25.41.51.46a19.1,19.1,0,0,1-1,1.77l-1.05,1.81c-.42.64-.78,1.14-1.18,1.65l-.64-.25-.25.41c.5.3,1,.59,1.49.9s.94.61,1.39.93l.24-.41-.47-.46a12.08,12.08,0,0,1,1-1.79l.36-.56.47.3c.12,1.1.23,3,.31,4.26A19.85,19.85,0,0,1,59,158l.25-.4-.21-.29c-.12-.5-.47-3.14-.58-3.87a2,2,0,0,0,2.6-.63C61.53,151.94,61.54,150.87,59.82,149.77Zm-.53,2c-.46.73-1.2.7-2.1.14a3,3,0,0,1-.54-.39L57,151c.34-.53.65-1,.85-1.24a5.48,5.48,0,0,1,.9.48C59.48,150.7,59.64,151.21,59.29,151.77Z"/><path class="cls-1" d="M70.7,155.57l-.55-.45a14.18,14.18,0,0,1-1.6-.28,66.39,66.39,0,0,1-4.95,4.91l-.61-.14-.18.44c.36.16.74.31,1.1.48s.87.4,1.28.6l.21-.44-.52-.37,1.46-1.7,2.11,1a17.79,17.79,0,0,1-.29,2.24l-.64-.15-.19.43c.54.24,1.09.45,1.63.69l1.51.73.19-.44-.5-.37c0-.68.1-2.69.24-4.14Zm-2.16,3.14L66.92,158l1.9-2.12h0Z"/><path class="cls-1" d="M91.8,161.27a15,15,0,0,1-.86-1.83l-.83-1.92c-.32-.73-.55-1.3-.75-1.9l.58-.38-.2-.44c-.54.24-1.06.49-1.57.71s-1.07.43-1.61.67l.2.42.68-.15c.31.56.59,1.12.91,1.83l.85,1.94c.32.71.54,1.28.75,1.89l-.57.38.19.44,1.55-.73c.47-.22,1-.43,1.56-.65l-.2-.43Z"/><path class="cls-1" d="M105.1,154c-.38-.52-.73-1-1.14-1.7l-1-1.83a15.89,15.89,0,0,1-1-1.77l.52-.46-.26-.41c-.43.28-.85.56-1.3.81s-.9.51-1.34.76c.25,1,1,4.62,1.14,5.38-.83-.57-3.5-2.86-4.18-3.53-.44.28-.87.55-1.29.8s-.9.49-1.34.75l.25.4.6-.21.53.86c.51.87,2.1,3.7,2.49,4.51l-.5.46.24.39,1.11-.67c.37-.24.76-.44,1.15-.65l-.24-.41-.65.24c-.39-.51-.74-1-1.15-1.7l-.6-1c-.5-.91-.87-1.55-1.05-1.87h0c2.68,2.26,4.14,3.43,4.86,4.08l1-.6-1.28-6.25h0c.21.31.61.94,1.15,1.85l.63,1a11.28,11.28,0,0,1,.91,1.8l-.44.44.21.43c.44-.31.92-.61,1.43-.91s1-.57,1.51-.87l-.24-.41Z"/><path class="cls-1" d="M112.28,148.73c-.45-.47-.87-.93-1.37-1.54l-1-1.19a18.17,18.17,0,0,1-1.23-1.71,3.46,3.46,0,0,1,.56-.64,1.26,1.26,0,0,1,1.94.07,1.24,1.24,0,0,1-.1,1.94,2.82,2.82,0,0,1-.47.3l.35.91a6,6,0,0,0,1-.63c1.58-1.26,1.62-2.87.75-3.93s-2-1.1-3.3,0a10.73,10.73,0,0,1-1.08,1c-.44.4-.88.74-1.22,1s-.76.58-1.2.95l.3.37.6-.33c.45.45.87.92,1.37,1.51l1.26,1.66c.5.6.87,1.1,1.23,1.62l-.44.52.3.38c.44-.38.87-.75,1.33-1.11l1.59-1.23-.32-.37Z"/><path class="cls-1" d="M124,137.76a36.68,36.68,0,0,1-3.8-1.62l-2.77-1.31-.6.36c-.24.44-.5.91-.8,1.4,1,1.92,2.45,4.9,3,6.34l-.34.5.36.33c.25-.28.52-.59.81-.86l1-1-.33-.34-.53.38L118.87,140l1.67-1.71a19,19,0,0,1,1.95,1l-.36.54.35.34c.41-.43.8-.87,1.2-1.29l1.21-1.16-.35-.34Zm-5.57,1.44-1.35-2.53v0l2.62,1.27Z"/><path class="cls-1" d="M132.28,127.56c-.51.06-3.23.18-4,.2a2,2,0,0,0-.39-2.67c-.73-.6-1.79-.7-3.07.94-.31.41-.63.84-.93,1.26s-.61.83-.91,1.22l-.84,1,.39.29.51-.47c.55.35,1.06.7,1.69,1.18l1.7,1.27a16.18,16.18,0,0,1,1.51,1.32l-.32.61.39.29,1-1.4c.34-.45.71-.87,1.07-1.33l-.39-.29-.49.46a19.75,19.75,0,0,1-1.71-1.15l-.46-.42.31-.45c1.07,0,2.95,0,4.3.09a14.24,14.24,0,0,1,1.26-1.87l-.38-.29Zm-5.51,1.26c-.16.18-.32.35-.46.48l-.49-.36c-.49-.37-.91-.72-1.17-.94a8,8,0,0,1,.56-.84c.55-.7,1.08-.82,1.59-.41S127.38,128,126.77,128.82Z"/><path class="cls-1" d="M136.74,114.51c-2.16-1.25-4.11-.55-5.48,1.74s-.7,4.56,1.16,5.63c2,1.24,4.11.55,5.47-1.74S138.6,115.6,136.74,114.51Zm.23,5.11c-.72,1.2-2.19,1.34-3.53.52s-2-2.16-1.28-3.37,2.14-1.32,3.53-.52S137.69,118.42,137,119.62Z"/><path class="cls-1" d="M79.34,160.34A1.63,1.63,0,0,0,77.78,162a1.65,1.65,0,0,0,1.56,1.68,1.66,1.66,0,1,0,0-3.32Z"/><path class="cls-1" d="M18.74,108.51a1.67,1.67,0,0,0,1.65-1.63,1.64,1.64,0,1,0-3.27,0A1.65,1.65,0,0,0,18.74,108.51Z"/><path class="cls-1" d="M140.29,108.51a1.66,1.66,0,1,0-1.62-1.63A1.67,1.67,0,0,0,140.29,108.51Z"/></svg>